<svg width="85" height="27" viewBox="0 0 85 27" fill="none" xmlns="http://www.w3.org/2000/svg">
<path d="M59.8123 3.59656L59.3713 5.2062H40.8117L41.2527 3.59656H59.8123ZM59.2084 10.5021L58.7481 12.1818H48.1802L41.384 22.4468L50.4095 22.3303L49.6089 14.2816H53.8313L55.2816 23.9633L36.0172 24.01L36.3226 22.6335L43.4091 12.1818H37.8507L38.311 10.5021H59.2084Z" fill="white"/>
<path d="M61.3585 14.2349C69.3211 14.2505 75.882 14.1027 81.0413 13.7916L80.7562 15.3547L73.2366 15.6346C73.1567 15.8678 73.072 16.1477 72.9826 16.4743L72.8164 17.0809H80.9989L80.7443 18.2708L72.4887 18.3643L72.062 19.834C77.5427 19.7407 80.3442 19.7174 80.4664 19.7639C80.57 19.8067 80.6808 19.8305 80.7931 19.834L80.4019 21.0005L71.6531 21.3271L70.9082 24.2198L66.3803 24.2899L62.4119 23.4499L62.84 21.887C64.0402 22.3381 65.2824 22.674 66.5491 22.89C66.7866 22.3144 66.944 21.7103 67.0173 21.0937L58.7285 21.047L59.0609 19.834L67.5185 19.7873C67.6717 19.3445 67.7956 18.8925 67.8894 18.4341L60.0295 18.3874L60.5371 17.0576C65.009 17.1043 67.6054 17.0887 68.3265 17.0108L68.6846 15.7046L60.8473 15.7514L61.3585 14.2349ZM85 3.78352L84.6422 5.08972H83.8071C83.04 6.51534 82.1134 7.85327 81.0443 9.07892C80.7236 9.43662 80.405 9.78653 80.0886 10.1287C80.7835 11.3121 81.545 12.4571 82.3695 13.5582H78.0995C77.8507 13.2472 77.6098 12.9362 77.3769 12.625C76.9896 12.9362 76.5943 13.2472 76.191 13.5582H72.1116C73.3834 12.5161 74.61 11.4351 75.7913 10.3153C75.139 9.31553 74.5466 8.27953 74.0172 7.21256H77.7627C77.9021 7.50431 78.0644 7.78507 78.2482 8.0523C79.051 7.12238 79.7771 6.13166 80.4197 5.08947H78.9168C78.5682 5.66487 78.1921 6.22478 77.7887 6.7692H74.0195C74.9776 5.49513 75.8263 4.14572 76.5568 2.73479H80.1826C80.0211 3.09249 79.8458 3.4424 79.6565 3.78452L85 3.78352ZM62.097 10.0591C62.0886 10.0902 62.2064 9.63146 62.4504 8.68279L68.8849 8.70615L68.0091 11.9023L68.7483 12.2522C69.5214 9.54606 69.9187 8.15403 69.9401 8.07616L70.0295 7.74961L66.3385 7.72625L65.7734 8.30952L61.9932 8.26279L64.0301 6.13996L67.5 6.18668L67.0446 6.63004H73.7486L71.8915 13.5821L68.7249 13.5587L67.7399 12.9754L67.6371 13.3487C67.1357 13.3799 64.9887 13.3799 61.1962 13.3487L62.097 10.0591ZM68.392 3.71444H69.9424L70.265 2.71143L73.7414 2.73479L73.4491 3.71444H74.9512L74.6748 4.8109L73.1416 4.83426L72.865 5.93072H69.4069L69.6835 4.83426H68.109L67.8087 5.93072H64.3018L64.5785 4.83426L63.1059 4.8109L63.4062 3.71444H64.8854L65.1538 2.73479L68.6908 2.71143L68.392 3.71444ZM64.8988 9.75664C64.7657 10.3009 64.5271 11.1717 64.1829 12.3691H65.2566L65.9244 9.75664H64.8988Z" fill="white"/>
<path fill-rule="evenodd" clip-rule="evenodd" d="M27.6089 6.75006C27.6081 4.96008 26.8806 3.24364 25.5864 1.97793C24.2921 0.71222 22.537 0.000798802 20.7066 0H6.90229C5.07194 0.000798802 3.31679 0.71222 2.02254 1.97793C0.728283 3.24364 0.000816817 4.96008 0 6.75006L0 20.2502C0.000884879 22.0401 0.728381 23.7565 2.02263 25.0222C3.31687 26.2878 5.07198 26.9992 6.90229 27H20.7066C22.537 26.9992 24.2921 26.2878 25.5864 25.0221C26.8806 23.7564 27.6081 22.0399 27.6089 20.2499V6.75006ZM12.3474 14.9294C12.719 15.2928 13.0137 15.7242 13.2147 16.199C13.4157 16.6738 13.519 17.1827 13.5187 17.6966C13.5184 18.2105 13.4146 18.7193 13.2132 19.1939C13.0117 19.6686 12.7165 20.0997 12.3446 20.4627C11.7911 21.0037 11.0879 21.3744 10.3215 21.5292C9.5552 21.684 8.75929 21.6161 8.03195 21.3338L9.40101 19.9962C9.72801 20.0109 10.0546 19.9587 10.3597 19.8429C10.6649 19.7271 10.942 19.5503 11.1733 19.3238C11.392 19.1102 11.5655 18.8565 11.6838 18.5773C11.8022 18.2981 11.8631 17.9988 11.8631 17.6966C11.8631 17.3943 11.8022 17.095 11.6838 16.8158C11.5655 16.5366 11.392 16.2829 11.1733 16.0693C10.7313 15.6379 10.1323 15.3957 9.5078 15.396C8.88332 15.3963 8.2845 15.639 7.84291 16.0708C7.60965 16.2982 7.42792 16.5711 7.3095 16.8716C7.19108 17.1722 7.13863 17.4937 7.15555 17.8154L5.79421 19.1467C5.50535 18.4359 5.43585 17.6578 5.59431 16.9088C5.75276 16.1598 6.13222 15.4726 6.68576 14.9322C7.43663 14.1984 8.45453 13.7861 9.51601 13.7855C10.5775 13.785 11.5958 14.1964 12.3474 14.9294ZM20.9234 14.9206C21.4769 15.461 21.8564 16.1482 22.0149 16.8973C22.1733 17.6463 22.1038 18.4243 21.815 19.1351L20.4459 17.7975C20.4608 17.478 20.4073 17.159 20.2888 16.8608C20.1703 16.5627 19.9895 16.2921 19.7578 16.0663C19.3162 15.6346 18.7174 15.3919 18.093 15.3916C17.4686 15.3913 16.8696 15.6335 16.4276 16.0648C16.209 16.2785 16.0357 16.5322 15.9175 16.8115C15.7992 17.0908 15.7385 17.3901 15.7386 17.6923C15.7387 17.9946 15.7998 18.2939 15.9183 18.573C16.0368 18.8522 16.2104 19.1058 16.4292 19.3193C16.662 19.5473 16.9412 19.7249 17.2488 19.8406C17.5563 19.9563 17.8853 20.0075 18.2143 19.991L19.5757 21.3223C18.8483 21.6046 18.0523 21.6726 17.2859 21.5178C16.5195 21.363 15.8162 20.9922 15.2628 20.4511C14.8909 20.088 14.5958 19.6568 14.3945 19.1821C14.1931 18.7074 14.0894 18.1986 14.0893 17.6846C14.0892 17.1707 14.1926 16.6618 14.3938 16.187C14.5949 15.7122 14.8898 15.2809 15.2615 14.9176C16.0132 14.1845 17.0316 13.773 18.0932 13.7736C19.1548 13.7742 20.1728 14.1867 20.9237 14.9206H20.9234ZM18.672 19.4835L16.245 17.112C16.3385 16.8357 16.4969 16.5846 16.7073 16.3788C16.9384 16.1526 17.2251 15.9882 17.5398 15.9015L21.3328 19.6064L20.0652 20.8458L18.672 19.4835ZM14.9687 13.4999C14.9705 13.6505 14.9415 13.8001 14.8833 13.9396C14.8251 14.0791 14.7389 14.2058 14.6299 14.3122C14.4125 14.5246 14.1178 14.6439 13.8105 14.6439C13.5032 14.6439 13.2085 14.5246 12.9911 14.3122C12.882 14.2058 12.7958 14.0791 12.7377 13.9396C12.6795 13.8001 12.6504 13.6505 12.6523 13.4999C12.6504 13.3492 12.6795 13.1997 12.7377 13.0602C12.7958 12.9206 12.882 12.7939 12.9911 12.6875C13.2085 12.4752 13.5032 12.3559 13.8105 12.3559C14.1178 12.3559 14.4125 12.4752 14.6299 12.6875C14.7389 12.7939 14.8251 12.9207 14.8833 13.0602C14.9415 13.1997 14.9705 13.3492 14.9687 13.4999ZM15.2594 12.0839C14.8879 11.7204 14.5932 11.2888 14.3923 10.8139C14.1913 10.339 14.0881 9.82995 14.0885 9.31597C14.0888 8.80199 14.1928 8.29312 14.3943 7.81845C14.5959 7.34378 14.8912 6.91261 15.2633 6.54961C15.8168 6.00842 16.5202 5.63747 17.2867 5.4825C18.0532 5.32752 18.8494 5.3953 19.577 5.67747L18.2141 7.00879C17.8849 6.99228 17.5558 7.04358 17.2482 7.15938C16.9406 7.27517 16.6613 7.45288 16.4284 7.68099C16.2095 7.89448 16.0359 8.14806 15.9173 8.42724C15.7988 8.70641 15.7376 9.0057 15.7374 9.308C15.7372 9.61029 15.7979 9.90966 15.9161 10.189C16.0342 10.4683 16.2075 10.7222 16.4261 10.9359C16.8682 11.3674 17.4674 11.6094 18.092 11.609C18.7166 11.6086 19.3155 11.3657 19.757 10.9337C19.9887 10.708 20.1697 10.4374 20.2883 10.1393C20.4069 9.84125 20.4606 9.52224 20.4459 9.20271L21.8152 7.86461C22.1037 8.57556 22.173 9.35359 22.0143 10.1026C21.8557 10.8516 21.4762 11.5387 20.9226 12.0791C20.172 12.8136 19.1539 13.2266 18.092 13.2275C17.0302 13.2284 16.0114 12.8171 15.2594 12.0839ZM6.68627 12.0688C6.13256 11.5283 5.75292 10.841 5.59429 10.0918C5.43565 9.34262 5.50498 8.56439 5.79369 7.8533L7.15658 9.18463C7.13975 9.50636 7.1923 9.82796 7.3108 10.1286C7.4293 10.4291 7.61112 10.702 7.84445 10.9294C8.28599 11.3614 8.88485 11.6043 9.50944 11.6047C10.134 11.6052 10.7332 11.3631 11.1754 10.9317C11.3939 10.7179 11.5672 10.4641 11.6854 10.1848C11.8035 9.90551 11.8642 9.60617 11.8641 9.3039C11.8639 9.00164 11.8028 8.70237 11.6842 8.42321C11.5657 8.14405 11.3921 7.89047 11.1733 7.67696C10.942 7.45057 10.6648 7.27387 10.3596 7.15817C10.0545 7.04247 9.72797 6.99031 9.40101 7.00502L8.03195 5.66591C8.75955 5.38374 9.55568 5.31597 10.3222 5.47094C11.0887 5.62592 11.7921 5.99687 12.3456 6.53806C12.7177 6.90104 13.013 7.3322 13.2146 7.80688C13.4162 8.28155 13.5202 8.79043 13.5205 9.30442C13.5209 9.81841 13.4177 10.3274 13.2167 10.8024C13.0158 11.2773 12.7211 11.7089 12.3495 12.0723C11.5977 12.8057 10.5789 13.2172 9.51708 13.2165C8.45522 13.2158 7.43707 12.8029 6.68627 12.0686V12.0688ZM8.87162 7.46395L11.2987 9.83547C11.2051 10.1118 11.0468 10.3629 10.8363 10.5687C10.6052 10.7949 10.3186 10.9593 10.0039 11.046L7.63382 8.72972L6.21237 7.34062L7.47997 6.10198L8.87162 7.46395Z" fill="white"/>
</svg>
